<mxfile host="app.diagrams.net" agent="Mozilla/5.0 (Macintosh; Intel Mac OS X 10_15_7) AppleWebKit/537.36 (KHTML, like Gecko) Chrome/141.0.0.0 Safari/537.36" version="28.2.7">
  <diagram name="Page-1" id="gISfV5mREblkqgA46jq-">
    <mxGraphModel dx="1301" dy="844" grid="1" gridSize="10" guides="1" tooltips="1" connect="1" arrows="1" fold="1" page="1" pageScale="1" pageWidth="827" pageHeight="1169" math="0" shadow="0">
      <root>
        <mxCell id="0" />
        <mxCell id="1" parent="0" />
        <mxCell id="rH86QiOWuQ6jiJq4Ew4r-8" value="&lt;b&gt;&lt;font style=&quot;font-size: 16px;&quot;&gt;FEEDAPP&lt;/font&gt;&lt;/b&gt;" style="verticalAlign=top;align=center;spacingTop=8;spacingLeft=2;spacingRight=12;shape=cube;size=10;direction=south;fontStyle=0;html=1;whiteSpace=wrap;strokeColor=default;fillColor=default;" vertex="1" parent="1">
          <mxGeometry x="260" y="120" width="240" height="610" as="geometry" />
        </mxCell>
        <mxCell id="rH86QiOWuQ6jiJq4Ew4r-27" style="edgeStyle=orthogonalEdgeStyle;rounded=0;orthogonalLoop=1;jettySize=auto;html=1;exitX=1.029;exitY=0.39;exitDx=0;exitDy=0;exitPerimeter=0;dashed=1;curved=1;entryX=0.5;entryY=0;entryDx=0;entryDy=0;entryPerimeter=0;" edge="1" parent="1" source="rH86QiOWuQ6jiJq4Ew4r-9" target="rH86QiOWuQ6jiJq4Ew4r-21">
          <mxGeometry relative="1" as="geometry">
            <mxPoint x="590" y="520" as="targetPoint" />
            <Array as="points">
              <mxPoint x="441" y="92" />
              <mxPoint x="510" y="92" />
              <mxPoint x="510" y="90" />
              <mxPoint x="550" y="90" />
              <mxPoint x="550" y="490" />
              <mxPoint x="650" y="490" />
            </Array>
          </mxGeometry>
        </mxCell>
        <mxCell id="rH86QiOWuQ6jiJq4Ew4r-9" value="&lt;div style=&quot;text-align: justify;&quot;&gt;&lt;span style=&quot;font-size: 17px; font-family: Verdana; background-color: transparent; color: light-dark(rgb(0, 0, 0), rgb(255, 255, 255));&quot;&gt;&amp;nbsp;External&lt;/span&gt;&lt;/div&gt;&lt;div style=&quot;text-align: justify;&quot;&gt;&lt;font style=&quot;font-size: 17px;&quot; face=&quot;Verdana&quot;&gt;&amp;nbsp;Clients&lt;/font&gt;&lt;/div&gt;&lt;div style=&quot;text-align: justify;&quot;&gt;&lt;font style=&quot;font-size: 20px;&quot;&gt;&lt;br&gt;&lt;/font&gt;&lt;/div&gt;" style="verticalAlign=top;align=left;spacingTop=8;spacingLeft=2;spacingRight=12;shape=cube;size=10;direction=south;fontStyle=0;html=1;whiteSpace=wrap;strokeColor=default;" vertex="1" parent="1">
          <mxGeometry x="380" y="10" width="100" height="70" as="geometry" />
        </mxCell>
        <mxCell id="rH86QiOWuQ6jiJq4Ew4r-44" value="" style="edgeStyle=orthogonalEdgeStyle;rounded=0;orthogonalLoop=1;jettySize=auto;html=1;strokeColor=default;endArrow=none;endFill=0;" edge="1" parent="1" source="rH86QiOWuQ6jiJq4Ew4r-10" target="rH86QiOWuQ6jiJq4Ew4r-13">
          <mxGeometry relative="1" as="geometry">
            <Array as="points">
              <mxPoint x="310" y="210" />
              <mxPoint x="370" y="210" />
            </Array>
          </mxGeometry>
        </mxCell>
        <mxCell id="rH86QiOWuQ6jiJq4Ew4r-10" value="" style="strokeWidth=2;html=1;shape=mxgraph.flowchart.start_2;whiteSpace=wrap;" vertex="1" parent="1">
          <mxGeometry x="300" y="185" width="20" height="20" as="geometry" />
        </mxCell>
        <mxCell id="rH86QiOWuQ6jiJq4Ew4r-11" value="&lt;div style=&quot;&quot;&gt;&lt;span style=&quot;background-color: transparent; color: light-dark(rgb(0, 0, 0), rgb(255, 255, 255));&quot;&gt;&lt;font style=&quot;font-size: 14px;&quot;&gt;&amp;nbsp; &amp;nbsp; WEB UI&amp;nbsp;&lt;/font&gt;&lt;/span&gt;&lt;/div&gt;&lt;div&gt;&lt;font style=&quot;font-size: 14px;&quot;&gt;&amp;nbsp; &amp;nbsp; (REACT&lt;/font&gt;&lt;/div&gt;" style="html=1;dropTarget=0;whiteSpace=wrap;align=left;" vertex="1" parent="1">
          <mxGeometry x="380" y="160" width="100" height="70" as="geometry" />
        </mxCell>
        <mxCell id="rH86QiOWuQ6jiJq4Ew4r-12" value="" style="shape=module;jettyWidth=8;jettyHeight=4;" vertex="1" parent="rH86QiOWuQ6jiJq4Ew4r-11">
          <mxGeometry x="1" width="20" height="20" relative="1" as="geometry">
            <mxPoint x="-27" y="7" as="offset" />
          </mxGeometry>
        </mxCell>
        <mxCell id="rH86QiOWuQ6jiJq4Ew4r-45" value="" style="edgeStyle=orthogonalEdgeStyle;rounded=0;orthogonalLoop=1;jettySize=auto;html=1;" edge="1" parent="1" source="rH86QiOWuQ6jiJq4Ew4r-13" target="rH86QiOWuQ6jiJq4Ew4r-16">
          <mxGeometry relative="1" as="geometry" />
        </mxCell>
        <mxCell id="rH86QiOWuQ6jiJq4Ew4r-47" value="" style="edgeStyle=orthogonalEdgeStyle;rounded=0;orthogonalLoop=1;jettySize=auto;html=1;" edge="1" parent="1" source="rH86QiOWuQ6jiJq4Ew4r-13" target="rH86QiOWuQ6jiJq4Ew4r-15">
          <mxGeometry relative="1" as="geometry" />
        </mxCell>
        <mxCell id="rH86QiOWuQ6jiJq4Ew4r-13" value="&lt;font style=&quot;font-size: 15px;&quot;&gt;&amp;nbsp; REST API&lt;/font&gt;&lt;div&gt;&lt;font style=&quot;font-size: 15px;&quot;&gt;&amp;nbsp; (Spring Web MVC)&lt;/font&gt;&lt;/div&gt;" style="html=1;dropTarget=0;whiteSpace=wrap;align=left;" vertex="1" parent="1">
          <mxGeometry x="280" y="285" width="200" height="65" as="geometry" />
        </mxCell>
        <mxCell id="rH86QiOWuQ6jiJq4Ew4r-14" value="" style="shape=module;jettyWidth=8;jettyHeight=4;" vertex="1" parent="rH86QiOWuQ6jiJq4Ew4r-13">
          <mxGeometry x="1" width="20" height="20" relative="1" as="geometry">
            <mxPoint x="-27" y="7" as="offset" />
          </mxGeometry>
        </mxCell>
        <mxCell id="rH86QiOWuQ6jiJq4Ew4r-15" value="&amp;nbsp;&lt;font style=&quot;font-size: 14px;&quot;&gt;NEO4J&lt;/font&gt;" style="strokeWidth=2;html=1;shape=mxgraph.flowchart.database;whiteSpace=wrap;" vertex="1" parent="1">
          <mxGeometry x="140" y="287.5" width="60" height="60" as="geometry" />
        </mxCell>
        <mxCell id="rH86QiOWuQ6jiJq4Ew4r-46" value="" style="edgeStyle=orthogonalEdgeStyle;rounded=0;orthogonalLoop=1;jettySize=auto;html=1;" edge="1" parent="1" source="rH86QiOWuQ6jiJq4Ew4r-16" target="rH86QiOWuQ6jiJq4Ew4r-18">
          <mxGeometry relative="1" as="geometry" />
        </mxCell>
        <mxCell id="rH86QiOWuQ6jiJq4Ew4r-16" value="&lt;font style=&quot;font-size: 15px;&quot;&gt;&amp;nbsp;&amp;nbsp;&lt;/font&gt;&lt;div&gt;&lt;font style=&quot;font-size: 16px;&quot;&gt;&amp;nbsp; &amp;nbsp;Business Logic&lt;br&gt;&lt;/font&gt;&lt;div&gt;&lt;br&gt;&lt;/div&gt;&lt;/div&gt;" style="html=1;dropTarget=0;whiteSpace=wrap;align=left;" vertex="1" parent="1">
          <mxGeometry x="290" y="410" width="180" height="60" as="geometry" />
        </mxCell>
        <mxCell id="rH86QiOWuQ6jiJq4Ew4r-17" value="" style="shape=module;jettyWidth=8;jettyHeight=4;" vertex="1" parent="rH86QiOWuQ6jiJq4Ew4r-16">
          <mxGeometry x="1" width="20" height="20" relative="1" as="geometry">
            <mxPoint x="-27" y="7" as="offset" />
          </mxGeometry>
        </mxCell>
        <mxCell id="rH86QiOWuQ6jiJq4Ew4r-18" value="&lt;div&gt;&lt;div&gt;&lt;span style=&quot;font-size: 15px;&quot;&gt;&amp;nbsp; Persistence&amp;nbsp;&lt;/span&gt;&lt;/div&gt;&lt;div&gt;&lt;span style=&quot;font-size: 15px;&quot;&gt;&amp;nbsp; (JPA)&lt;/span&gt;&lt;/div&gt;&lt;/div&gt;" style="html=1;dropTarget=0;whiteSpace=wrap;align=left;" vertex="1" parent="1">
          <mxGeometry x="290" y="510" width="180" height="60" as="geometry" />
        </mxCell>
        <mxCell id="rH86QiOWuQ6jiJq4Ew4r-19" value="" style="shape=module;jettyWidth=8;jettyHeight=4;" vertex="1" parent="rH86QiOWuQ6jiJq4Ew4r-18">
          <mxGeometry x="1" width="20" height="20" relative="1" as="geometry">
            <mxPoint x="-27" y="7" as="offset" />
          </mxGeometry>
        </mxCell>
        <mxCell id="rH86QiOWuQ6jiJq4Ew4r-20" value="H2" style="strokeWidth=2;html=1;shape=mxgraph.flowchart.database;whiteSpace=wrap;" vertex="1" parent="1">
          <mxGeometry x="350" y="610" width="60" height="60" as="geometry" />
        </mxCell>
        <mxCell id="rH86QiOWuQ6jiJq4Ew4r-21" value="&amp;nbsp; RABBITMQ" style="strokeWidth=2;html=1;shape=mxgraph.flowchart.direct_data;whiteSpace=wrap;align=left;" vertex="1" parent="1">
          <mxGeometry x="600" y="550" width="100" height="30" as="geometry" />
        </mxCell>
        <mxCell id="rH86QiOWuQ6jiJq4Ew4r-25" style="edgeStyle=orthogonalEdgeStyle;rounded=0;orthogonalLoop=1;jettySize=auto;html=1;dashed=1;" edge="1" parent="1" source="rH86QiOWuQ6jiJq4Ew4r-22" target="rH86QiOWuQ6jiJq4Ew4r-11">
          <mxGeometry relative="1" as="geometry" />
        </mxCell>
        <mxCell id="rH86QiOWuQ6jiJq4Ew4r-22" value="End Users" style="shape=umlActor;verticalLabelPosition=bottom;verticalAlign=top;html=1;outlineConnect=0;" vertex="1" parent="1">
          <mxGeometry x="590" y="165" width="30" height="60" as="geometry" />
        </mxCell>
        <mxCell id="rH86QiOWuQ6jiJq4Ew4r-29" value="HTTP" style="text;html=1;whiteSpace=wrap;strokeColor=none;fillColor=none;align=center;verticalAlign=middle;rounded=0;" vertex="1" parent="1">
          <mxGeometry x="280" y="210" width="60" height="30" as="geometry" />
        </mxCell>
        <mxCell id="rH86QiOWuQ6jiJq4Ew4r-30" style="edgeStyle=orthogonalEdgeStyle;rounded=0;orthogonalLoop=1;jettySize=auto;html=1;entryX=0.5;entryY=0;entryDx=0;entryDy=0;entryPerimeter=0;curved=1;dashed=1;" edge="1" parent="1" source="rH86QiOWuQ6jiJq4Ew4r-9" target="rH86QiOWuQ6jiJq4Ew4r-10">
          <mxGeometry relative="1" as="geometry" />
        </mxCell>
        <mxCell id="rH86QiOWuQ6jiJq4Ew4r-40" value="" style="rounded=0;orthogonalLoop=1;jettySize=auto;html=1;endArrow=halfCircle;endFill=0;endSize=6;strokeWidth=1;sketch=0;fontSize=12;curved=1;" edge="1" target="rH86QiOWuQ6jiJq4Ew4r-8" parent="1" source="rH86QiOWuQ6jiJq4Ew4r-11">
          <mxGeometry relative="1" as="geometry">
            <mxPoint x="375" y="195" as="sourcePoint" />
          </mxGeometry>
        </mxCell>
        <mxCell id="rH86QiOWuQ6jiJq4Ew4r-41" value="" style="ellipse;whiteSpace=wrap;html=1;align=center;aspect=fixed;fillColor=none;strokeColor=none;resizable=0;perimeter=centerPerimeter;rotatable=0;allowArrows=0;points=[];outlineConnect=1;" vertex="1" parent="1">
          <mxGeometry x="350" y="190" width="10" height="10" as="geometry" />
        </mxCell>
        <mxCell id="rH86QiOWuQ6jiJq4Ew4r-42" value="" style="rounded=0;orthogonalLoop=1;jettySize=auto;html=1;endArrow=halfCircle;endFill=0;endSize=6;strokeWidth=1;sketch=0;fontSize=12;curved=1;entryX=0.104;entryY=0.284;entryDx=0;entryDy=0;entryPerimeter=0;exitX=0;exitY=0.5;exitDx=0;exitDy=0;" edge="1" parent="1" source="rH86QiOWuQ6jiJq4Ew4r-11">
          <mxGeometry relative="1" as="geometry">
            <mxPoint x="350" y="194.92" as="sourcePoint" />
            <mxPoint x="330" y="194.92" as="targetPoint" />
          </mxGeometry>
        </mxCell>
        <mxCell id="rH86QiOWuQ6jiJq4Ew4r-43" value="" style="ellipse;whiteSpace=wrap;html=1;align=center;aspect=fixed;fillColor=none;strokeColor=none;resizable=0;perimeter=centerPerimeter;rotatable=0;allowArrows=0;points=[];outlineConnect=1;" vertex="1" parent="1">
          <mxGeometry x="355" y="190" width="10" height="10" as="geometry" />
        </mxCell>
        <mxCell id="rH86QiOWuQ6jiJq4Ew4r-50" value="Cache" style="text;html=1;whiteSpace=wrap;strokeColor=none;fillColor=none;align=center;verticalAlign=middle;rounded=0;" vertex="1" parent="1">
          <mxGeometry x="200" y="290" width="60" height="30" as="geometry" />
        </mxCell>
        <mxCell id="rH86QiOWuQ6jiJq4Ew4r-51" style="edgeStyle=orthogonalEdgeStyle;rounded=0;orthogonalLoop=1;jettySize=auto;html=1;entryX=0.08;entryY=0;entryDx=0;entryDy=0;entryPerimeter=0;exitX=0.798;exitY=1.012;exitDx=0;exitDy=0;exitPerimeter=0;curved=1;" edge="1" parent="1" source="rH86QiOWuQ6jiJq4Ew4r-16" target="rH86QiOWuQ6jiJq4Ew4r-21">
          <mxGeometry relative="1" as="geometry" />
        </mxCell>
        <mxCell id="rH86QiOWuQ6jiJq4Ew4r-53" value="Messaging" style="text;html=1;whiteSpace=wrap;strokeColor=none;fillColor=none;align=center;verticalAlign=middle;rounded=0;" vertex="1" parent="1">
          <mxGeometry x="510" y="510" width="60" height="30" as="geometry" />
        </mxCell>
      </root>
    </mxGraphModel>
  </diagram>
</mxfile>
